<svg xmlns="http://www.w3.org/2000/svg" viewBox="0 0 128 128" role="img" aria-label="Alinafe Capital Favicon">
  <defs>
    <linearGradient id="alinafeGold" x1="0%" y1="0%" x2="100%" y2="0%">
      <stop offset="0%" stop-color="#8E6F2E" />
      <stop offset="45%" stop-color="#B38E46" />
      <stop offset="100%" stop-color="#D9C08E" />
    </linearGradient>
  </defs>
  <rect width="128" height="128" rx="24" fill="#ffffff" />
  <g transform="translate(64 68)">
    <path d="M-18 22 L0 -38 L18 22 H10 L0 -3 L-10 22 H-18Z" fill="#002D5B" />
    <path d="M-4 22 V6 H2 V22 H-4Z" fill="#002D5B" />
    <path d="M4 22 V-3 H10 V22 H4Z" fill="#002D5B" />
    <path d="M12 22 V-12 H18 V22 H12Z" fill="#002D5B" />
    <path d="M-28 28 Q0 30 28 27 Q0 33 -28 28 Z" fill="#002D5B" />
    <g transform="translate(-46, 24)">
      <path
        d="M6 0 C18 -10 54 -52 138 -82"
        stroke="url(#alinafeGold)"
        stroke-width="4.5"
        fill="none"
        stroke-linecap="round"
      />
      <path d="M138 -82 L148 -88 L140 -72 L138 -82Z" fill="#B38E46" />
      <path d="M6 0 C-5 12 -8 32 24 25 C6 30 -2 18 6 0Z" fill="#B38E46" />
    </g>
  </g>
</svg>
